<svg xmlns="http://www.w3.org/2000/svg" viewBox="0 0 62 62" width="62" height="62"><style type="text/css">.st0{fill:none;stroke:#ffffff;stroke-width:2;}</style><path class="st0" d="M26.9,1.8c6.8-2,14.4-0.3,19.8,5.1c7.8,7.8,7.8,20.5,0,28.3"/><path class="st0" d="M46.6,35.2l-17,17c-1.6,1.6-4.1,1.6-5.7,0l0,0"/><path class="st0" d="M35.2,6.9c-7.8-7.8-20.5-7.8-28.3,0s-7.8,20.5,0,28.3"/><path class="st0" d="M6.9,35.2l17,17c1.6,1.6,4.1,1.6,5.7,0l0,0c1.6-1.6,1.6-4.1,0-5.7"/><path class="st0" d="M15.6,32.5l13.9,13.9c1.6,1.6,4.1,1.6,5.7,0l0,0c1.6-1.6,1.6-4.1,0-5.7"/><path class="st0" d="M21.2,26.9l13.9,13.9c1.6,1.6,4.1,1.6,5.7,0l0,0c1.6-1.6,1.6-4.1,0-5.7"/><path class="st0" d="M29.5,12.5l17,17c1.6,1.6,1.6,4.1,0,5.7l0,0c-1.6,1.6-4.1,1.6-5.7,0L26.9,21.2"/><path class="st0" d="M35.2,6.9l5.7,5.7c1.6,1.6,1.6,4.1,0,5.7l0,0c-1.6,1.6-4.1,1.6-5.7,0l-2.8-2.8"/></svg>
