<svg xmlns="http://www.w3.org/2000/svg" viewBox="0 0 62 62" width="62" height="62"><style type="text/css">.st0{fill:none;stroke:#ffffff;stroke-width:2;}</style><rect id="XMLID_138_" x="11" y="37.1" class="st0" width="9.2" height="6.8"/><rect id="XMLID_137_" x="26.4" y="37.1" class="st0" width="9.2" height="6.8"/><rect id="XMLID_136_" x="41.8" y="37.1" class="st0" width="9.2" height="6.8"/><rect id="XMLID_134_" x="11" y="25.6" class="st0" width="9.2" height="6.8"/><rect id="XMLID_133_" x="26.4" y="25.6" class="st0" width="9.2" height="6.8"/><rect id="XMLID_132_" x="41.8" y="25.6" class="st0" width="9.2" height="6.8"/><rect id="XMLID_130_" x="11" y="48.2" class="st0" width="9.2" height="6.8"/><rect id="XMLID_129_" x="26.4" y="48.2" class="st0" width="9.2" height="6.8"/><rect id="XMLID_128_" x="41.8" y="48.2" class="st0" width="9.2" height="6.8"/><rect id="XMLID_126_" x="1" y="1" class="st0" width="60" height="15"/><rect id="XMLID_125_" x="1" y="16" class="st0" width="60" height="45"/><line id="XMLID_8_" class="st0" x1="11" y1="13.5" x2="11" y2="18.5"/><line id="XMLID_7_" class="st0" x1="21" y1="13.5" x2="21" y2="18.5"/><line id="XMLID_6_" class="st0" x1="31" y1="13.5" x2="31" y2="18.5"/><line id="XMLID_5_" class="st0" x1="41" y1="13.5" x2="41" y2="18.5"/><line id="XMLID_4_" class="st0" x1="51" y1="13.5" x2="51" y2="18.5"/></svg>
