<svg xmlns="http://www.w3.org/2000/svg" viewBox="0 0 62 63" width="62" height="63"><style type="text/css">.st0{fill:none;stroke:#ffffff;stroke-width:2;}</style><circle id="XMLID_125_" class="st0" cx="14.3" cy="30.6" r="3.2"/><circle id="XMLID_8_" class="st0" cx="26" cy="30.6" r="3.2"/><circle id="XMLID_7_" class="st0" cx="37.7" cy="30.6" r="3.2"/><path id="XMLID_5_" class="st0" d="M51,41h6c2.2,0,4-1.8,4-4V5c0-2.2-1.8-4-4-4H15c-2.2,0-4,1.8-4,4v6"/><path id="XMLID_4_" class="st0" d="M1,15v32c0,2.2,1.8,4,4,4h36l10,10V51V15c0-2.2-1.8-4-4-4H5C2.8,11,1,12.8,1,15z"/></svg>
