<?xml version="1.0" encoding="utf-8"?>
<!-- Generator: Adobe Illustrator 23.0.1, SVG Export Plug-In . SVG Version: 6.00 Build 0)  -->
<svg version="1.1" id="Calque_1" xmlns="http://www.w3.org/2000/svg" xmlns:xlink="http://www.w3.org/1999/xlink" x="0px" y="0px"
	 viewBox="0 0 310 310" style="enable-background:new 0 0 310 310;" xml:space="preserve">
<path d="M155.1,4.5c-82.8,0-150,67.2-150,150s67.2,150,150,150s150-67.2,150-150S238,4.5,155.1,4.5z M237,82.4
	c2.2-1.8,5.1-2.7,8.7-2.7s6.2,0.9,7.9,2.8c1.7,1.9,2.5,4.4,2.5,7.5c0,10.3-0.2,27.1-0.5,50.5c-0.4,23.3-0.5,40.2-0.5,50.5
	c0,2.1-1,3.8-3,5c-2,1.2-4.1,1.8-6.3,1.8c-6.4,0-9.5-2.3-9.5-6.9c0-10.3-0.4-27.1-1.3-50.5c-0.8-23.4-1.3-40.2-1.3-50.5
	C233.7,86.7,234.8,84.2,237,82.4z M80.6,228.3c0,2.3-1.1,4.1-3.3,5.4c-2.2,1.3-4.8,2-7.9,2c-3,0-5.6-0.7-7.8-2
	c-2.3-1.3-3.4-3.1-3.4-5.4v-140c0-2.4,1.1-4.2,3.3-5.4c2.2-1.2,4.8-1.8,7.9-1.8c3.1,0,5.7,0.6,7.9,1.8s3.3,3,3.3,5.4V228.3z
	 M206.3,98.8c-1.3,2.1-3.1,3.1-5.4,3.1h-32.6v126.4c0,2.3-1.1,4-3.4,5.4c-2.3,1.3-4.9,2-7.8,2c-3.1,0-5.7-0.7-7.9-2
	c-2.2-1.3-3.3-3.1-3.3-5.4V101.9h-32.8c-2.3,0-4-1-5.4-3.1c-1.3-2.1-2-4.5-2-7.4c0-2.7,0.6-5.1,1.9-7.2c1.3-2.1,3.1-3.1,5.5-3.1H201
	c2.4,0,4.2,1,5.5,3c1.3,2,1.9,4.3,1.9,7C208.4,94.2,207.7,96.8,206.3,98.8z M254.6,233.5c-2.4,2.3-5.3,3.5-8.6,3.5
	c-3.8,0-7-1.2-9.6-3.5c-2.6-2.3-3.9-5-3.9-8.1c0-3.2,1.3-6,3.9-8.2c2.6-2.3,5.8-3.4,9.6-3.4c3.3,0,6.2,1.1,8.6,3.4
	c2.4,2.3,3.6,5,3.6,8.2C258.2,228.5,257,231.2,254.6,233.5z"/>
</svg>
