<svg xmlns="http://www.w3.org/2000/svg" viewBox="0 0 300 300"><path d="M155.14,4.45a150,150,0,1,0,150,150A150,150,0,0,0,155.14,4.45Zm81.89,78a13.51,13.51,0,0,1,8.7-2.68q5.34,0,7.85,2.79a10.83,10.83,0,0,1,2.5,7.51q0,15.47-.53,50.48T255,191a5.65,5.65,0,0,1-3,5,11.93,11.93,0,0,1-6.27,1.82q-9.53,0-9.52-6.87,0-15.47-1.27-50.48T233.67,90A9.19,9.19,0,0,1,237,82.41ZM80.61,228.35a6.08,6.08,0,0,1-3.28,5.39,14.9,14.9,0,0,1-7.93,2,15,15,0,0,1-7.82-2,6.07,6.07,0,0,1-3.39-5.39v-140A5.8,5.8,0,0,1,61.47,83a16.25,16.25,0,0,1,7.93-1.8A16.28,16.28,0,0,1,77.33,83a5.8,5.8,0,0,1,3.28,5.39ZM206.35,98.82a6.17,6.17,0,0,1-5.39,3.1H168.4V228.36a6.06,6.06,0,0,1-3.38,5.38,16.5,16.5,0,0,1-15.75,0,6.08,6.08,0,0,1-3.28-5.38V101.92H113.22a6.14,6.14,0,0,1-5.39-3.1,14.46,14.46,0,0,1-.11-14.52,6.1,6.1,0,0,1,5.5-3.1H201a6.14,6.14,0,0,1,5.5,3,12.82,12.82,0,0,1,1.9,7A13.62,13.62,0,0,1,206.35,98.82Zm48.21,134.71A12,12,0,0,1,246,237a14,14,0,0,1-9.61-3.49,10.46,10.46,0,0,1,0-16.37,14.27,14.27,0,0,1,9.61-3.39,12.15,12.15,0,0,1,8.6,3.39,10.84,10.84,0,0,1,3.63,8.23A11,11,0,0,1,254.56,233.53Z" transform="translate(-5.14 -4.45)"/></svg>
